<mxfile host="app.diagrams.net" modified="2020-11-19T06:35:20.040Z" agent="5.0 (Macintosh; Intel Mac OS X 10_15_4) AppleWebKit/537.36 (KHTML, like Gecko) Chrome/87.0.4280.67 Safari/537.36" etag="oUjyPQmJzAD7Z1Az4QzZ" version="13.10.0" type="github">
  <diagram id="NGXj8-KYPfgp0NoEuoT7" name="Page-1">
    <mxGraphModel dx="988" dy="636" grid="1" gridSize="10" guides="1" tooltips="1" connect="1" arrows="1" fold="1" page="1" pageScale="1" pageWidth="850" pageHeight="1100" math="0" shadow="0">
      <root>
        <mxCell id="0" />
        <mxCell id="1" parent="0" />
        <mxCell id="Z3-nPlaem73siMLmUKGo-69" value="" style="rounded=0;whiteSpace=wrap;html=1;" vertex="1" parent="1">
          <mxGeometry x="390" y="90" width="80" height="118" as="geometry" />
        </mxCell>
        <mxCell id="Z3-nPlaem73siMLmUKGo-68" value="" style="rounded=0;whiteSpace=wrap;html=1;" vertex="1" parent="1">
          <mxGeometry x="220" y="90" width="80" height="116" as="geometry" />
        </mxCell>
        <mxCell id="Z3-nPlaem73siMLmUKGo-1" value="" style="rounded=0;whiteSpace=wrap;html=1;" vertex="1" parent="1">
          <mxGeometry x="10" y="90" width="210" height="268" as="geometry" />
        </mxCell>
        <mxCell id="Z3-nPlaem73siMLmUKGo-2" value="" style="rounded=0;whiteSpace=wrap;html=1;" vertex="1" parent="1">
          <mxGeometry x="470" y="90" width="370" height="270" as="geometry" />
        </mxCell>
        <mxCell id="Z3-nPlaem73siMLmUKGo-4" value="Feasibility GUI" style="html=1;verticalLabelPosition=bottom;align=center;labelBackgroundColor=#ffffff;verticalAlign=top;strokeWidth=2;strokeColor=#0080F0;shadow=0;dashed=0;shape=mxgraph.ios7.icons.monitor;" vertex="1" parent="1">
          <mxGeometry x="30" y="265" width="60" height="40" as="geometry" />
        </mxCell>
        <mxCell id="Z3-nPlaem73siMLmUKGo-5" value="" style="html=1;verticalLabelPosition=bottom;align=center;labelBackgroundColor=#ffffff;verticalAlign=top;strokeWidth=2;strokeColor=#0080F0;shadow=0;dashed=0;shape=mxgraph.ios7.icons.data;" vertex="1" parent="1">
          <mxGeometry x="790" y="130" width="32" height="40" as="geometry" />
        </mxCell>
        <mxCell id="Z3-nPlaem73siMLmUKGo-16" value="" style="group" vertex="1" connectable="0" parent="1">
          <mxGeometry x="36" y="131" width="60" height="50" as="geometry" />
        </mxCell>
        <mxCell id="Z3-nPlaem73siMLmUKGo-14" value="Query&lt;br&gt;Builder&lt;br&gt;" style="html=1;verticalLabelPosition=bottom;align=center;labelBackgroundColor=#ffffff;verticalAlign=top;strokeWidth=2;strokeColor=#0080F0;shadow=0;dashed=0;shape=mxgraph.ios7.icons.window;" vertex="1" parent="Z3-nPlaem73siMLmUKGo-16">
          <mxGeometry width="47.72727272727273" height="39.473684210526315" as="geometry" />
        </mxCell>
        <mxCell id="Z3-nPlaem73siMLmUKGo-15" value="" style="html=1;verticalLabelPosition=bottom;align=center;labelBackgroundColor=#ffffff;verticalAlign=top;strokeWidth=2;strokeColor=#0080F0;shadow=0;dashed=0;shape=mxgraph.ios7.icons.settings;" vertex="1" parent="Z3-nPlaem73siMLmUKGo-16">
          <mxGeometry x="32.72727272727273" y="23.68421052631579" width="27.27272727272727" height="26.315789473684212" as="geometry" />
        </mxCell>
        <mxCell id="Z3-nPlaem73siMLmUKGo-17" value="" style="group" vertex="1" connectable="0" parent="1">
          <mxGeometry x="482" y="133" width="60" height="50" as="geometry" />
        </mxCell>
        <mxCell id="Z3-nPlaem73siMLmUKGo-18" value="Query&lt;br&gt;Handler" style="html=1;verticalLabelPosition=bottom;align=center;labelBackgroundColor=#ffffff;verticalAlign=top;strokeWidth=2;strokeColor=#0080F0;shadow=0;dashed=0;shape=mxgraph.ios7.icons.window;" vertex="1" parent="Z3-nPlaem73siMLmUKGo-17">
          <mxGeometry width="47.72727272727273" height="39.473684210526315" as="geometry" />
        </mxCell>
        <mxCell id="Z3-nPlaem73siMLmUKGo-19" value="" style="html=1;verticalLabelPosition=bottom;align=center;labelBackgroundColor=#ffffff;verticalAlign=top;strokeWidth=2;strokeColor=#0080F0;shadow=0;dashed=0;shape=mxgraph.ios7.icons.settings;" vertex="1" parent="Z3-nPlaem73siMLmUKGo-17">
          <mxGeometry x="32.72727272727273" y="23.68421052631579" width="27.27272727272727" height="26.315789473684212" as="geometry" />
        </mxCell>
        <mxCell id="Z3-nPlaem73siMLmUKGo-20" value="" style="group" vertex="1" connectable="0" parent="1">
          <mxGeometry x="719" y="133" width="60" height="50" as="geometry" />
        </mxCell>
        <mxCell id="Z3-nPlaem73siMLmUKGo-21" value="FHIR&lt;br&gt;Server/Store" style="html=1;verticalLabelPosition=bottom;align=center;labelBackgroundColor=#ffffff;verticalAlign=top;strokeWidth=2;strokeColor=#0080F0;shadow=0;dashed=0;shape=mxgraph.ios7.icons.window;" vertex="1" parent="Z3-nPlaem73siMLmUKGo-20">
          <mxGeometry width="47.72727272727273" height="39.473684210526315" as="geometry" />
        </mxCell>
        <mxCell id="Z3-nPlaem73siMLmUKGo-22" value="" style="html=1;verticalLabelPosition=bottom;align=center;labelBackgroundColor=#ffffff;verticalAlign=top;strokeWidth=2;strokeColor=#0080F0;shadow=0;dashed=0;shape=mxgraph.ios7.icons.settings;" vertex="1" parent="Z3-nPlaem73siMLmUKGo-20">
          <mxGeometry x="32.72727272727273" y="23.68421052631579" width="27.27272727272727" height="26.315789473684212" as="geometry" />
        </mxCell>
        <mxCell id="Z3-nPlaem73siMLmUKGo-24" value="" style="group" vertex="1" connectable="0" parent="1">
          <mxGeometry x="160" y="131" width="60" height="50" as="geometry" />
        </mxCell>
        <mxCell id="Z3-nPlaem73siMLmUKGo-25" value="Query&lt;br&gt;Distributor" style="html=1;verticalLabelPosition=bottom;align=center;labelBackgroundColor=#ffffff;verticalAlign=top;strokeWidth=2;strokeColor=#0080F0;shadow=0;dashed=0;shape=mxgraph.ios7.icons.window;" vertex="1" parent="Z3-nPlaem73siMLmUKGo-24">
          <mxGeometry width="47.72727272727273" height="39.473684210526315" as="geometry" />
        </mxCell>
        <mxCell id="Z3-nPlaem73siMLmUKGo-26" value="" style="html=1;verticalLabelPosition=bottom;align=center;labelBackgroundColor=#ffffff;verticalAlign=top;strokeWidth=2;strokeColor=#0080F0;shadow=0;dashed=0;shape=mxgraph.ios7.icons.settings;" vertex="1" parent="Z3-nPlaem73siMLmUKGo-24">
          <mxGeometry x="32.72727272727273" y="23.68421052631579" width="27.27272727272727" height="26.315789473684212" as="geometry" />
        </mxCell>
        <mxCell id="Z3-nPlaem73siMLmUKGo-27" value="" style="group" vertex="1" connectable="0" parent="1">
          <mxGeometry x="229" y="131" width="60" height="50" as="geometry" />
        </mxCell>
        <mxCell id="Z3-nPlaem73siMLmUKGo-28" value="FHIR&lt;br&gt;Connector" style="html=1;verticalLabelPosition=bottom;align=center;labelBackgroundColor=#ffffff;verticalAlign=top;strokeWidth=2;strokeColor=#0080F0;shadow=0;dashed=0;shape=mxgraph.ios7.icons.window;" vertex="1" parent="Z3-nPlaem73siMLmUKGo-27">
          <mxGeometry width="47.72727272727273" height="39.473684210526315" as="geometry" />
        </mxCell>
        <mxCell id="Z3-nPlaem73siMLmUKGo-29" value="" style="html=1;verticalLabelPosition=bottom;align=center;labelBackgroundColor=#ffffff;verticalAlign=top;strokeWidth=2;strokeColor=#0080F0;shadow=0;dashed=0;shape=mxgraph.ios7.icons.settings;" vertex="1" parent="Z3-nPlaem73siMLmUKGo-27">
          <mxGeometry x="32.72727272727273" y="23.68421052631579" width="27.27272727272727" height="26.315789473684212" as="geometry" />
        </mxCell>
        <mxCell id="Z3-nPlaem73siMLmUKGo-30" value="" style="group" vertex="1" connectable="0" parent="1">
          <mxGeometry x="409" y="133" width="60" height="50" as="geometry" />
        </mxCell>
        <mxCell id="Z3-nPlaem73siMLmUKGo-31" value="FHIR&lt;br&gt;Connector" style="html=1;verticalLabelPosition=bottom;align=center;labelBackgroundColor=#ffffff;verticalAlign=top;strokeWidth=2;strokeColor=#0080F0;shadow=0;dashed=0;shape=mxgraph.ios7.icons.window;" vertex="1" parent="Z3-nPlaem73siMLmUKGo-30">
          <mxGeometry width="47.72727272727273" height="39.473684210526315" as="geometry" />
        </mxCell>
        <mxCell id="Z3-nPlaem73siMLmUKGo-32" value="" style="html=1;verticalLabelPosition=bottom;align=center;labelBackgroundColor=#ffffff;verticalAlign=top;strokeWidth=2;strokeColor=#0080F0;shadow=0;dashed=0;shape=mxgraph.ios7.icons.settings;" vertex="1" parent="Z3-nPlaem73siMLmUKGo-30">
          <mxGeometry x="32.72727272727273" y="23.68421052631579" width="27.27272727272727" height="26.315789473684212" as="geometry" />
        </mxCell>
        <mxCell id="Z3-nPlaem73siMLmUKGo-33" value="" style="group" vertex="1" connectable="0" parent="1">
          <mxGeometry x="630" y="133" width="60" height="50" as="geometry" />
        </mxCell>
        <mxCell id="Z3-nPlaem73siMLmUKGo-34" value="Feasibility&lt;br&gt;Feature&lt;br&gt;Service" style="html=1;verticalLabelPosition=bottom;align=center;labelBackgroundColor=#ffffff;verticalAlign=top;strokeWidth=2;strokeColor=#0080F0;shadow=0;dashed=0;shape=mxgraph.ios7.icons.window;" vertex="1" parent="Z3-nPlaem73siMLmUKGo-33">
          <mxGeometry width="47.72727272727273" height="39.473684210526315" as="geometry" />
        </mxCell>
        <mxCell id="Z3-nPlaem73siMLmUKGo-35" value="" style="html=1;verticalLabelPosition=bottom;align=center;labelBackgroundColor=#ffffff;verticalAlign=top;strokeWidth=2;strokeColor=#0080F0;shadow=0;dashed=0;shape=mxgraph.ios7.icons.settings;" vertex="1" parent="Z3-nPlaem73siMLmUKGo-33">
          <mxGeometry x="32.72727272727273" y="23.68421052631579" width="27.27272727272727" height="26.315789473684212" as="geometry" />
        </mxCell>
        <mxCell id="Z3-nPlaem73siMLmUKGo-37" value="" style="endArrow=classic;html=1;exitX=0.509;exitY=-0.047;exitDx=0;exitDy=0;exitPerimeter=0;" edge="1" parent="1" source="Z3-nPlaem73siMLmUKGo-25">
          <mxGeometry width="50" height="50" relative="1" as="geometry">
            <mxPoint x="440" y="290" as="sourcePoint" />
            <mxPoint x="433" y="129" as="targetPoint" />
            <Array as="points">
              <mxPoint x="310" y="110" />
            </Array>
          </mxGeometry>
        </mxCell>
        <mxCell id="Z3-nPlaem73siMLmUKGo-38" value="" style="endArrow=classic;html=1;entryX=0.988;entryY=0.249;entryDx=0;entryDy=0;entryPerimeter=0;exitX=0;exitY=0.228;exitDx=0;exitDy=0;exitPerimeter=0;" edge="1" parent="1" source="Z3-nPlaem73siMLmUKGo-18" target="Z3-nPlaem73siMLmUKGo-31">
          <mxGeometry width="50" height="50" relative="1" as="geometry">
            <mxPoint x="440" y="293" as="sourcePoint" />
            <mxPoint x="490" y="243" as="targetPoint" />
          </mxGeometry>
        </mxCell>
        <mxCell id="Z3-nPlaem73siMLmUKGo-44" value="" style="endArrow=classic;startArrow=classic;html=1;entryX=-0.007;entryY=0.203;entryDx=0;entryDy=0;entryPerimeter=0;exitX=1.02;exitY=0.194;exitDx=0;exitDy=0;exitPerimeter=0;" edge="1" parent="1">
          <mxGeometry width="50" height="50" relative="1" as="geometry">
            <mxPoint x="678.6818181818182" y="149.65789473684208" as="sourcePoint" />
            <mxPoint x="718.665909090909" y="150.01315789473688" as="targetPoint" />
            <Array as="points">
              <mxPoint x="710" y="150" />
            </Array>
          </mxGeometry>
        </mxCell>
        <mxCell id="Z3-nPlaem73siMLmUKGo-45" value="" style="endArrow=classic;startArrow=classic;html=1;entryX=-0.007;entryY=0.203;entryDx=0;entryDy=0;entryPerimeter=0;" edge="1" parent="1">
          <mxGeometry width="50" height="50" relative="1" as="geometry">
            <mxPoint x="770" y="143" as="sourcePoint" />
            <mxPoint x="789.9959090909091" y="143.35315789473688" as="targetPoint" />
          </mxGeometry>
        </mxCell>
        <mxCell id="Z3-nPlaem73siMLmUKGo-47" value="" style="endArrow=classic;startArrow=classic;html=1;entryX=-0.012;entryY=0.442;entryDx=0;entryDy=0;entryPerimeter=0;exitX=1.02;exitY=0.194;exitDx=0;exitDy=0;exitPerimeter=0;" edge="1" parent="1" target="Z3-nPlaem73siMLmUKGo-34">
          <mxGeometry width="50" height="50" relative="1" as="geometry">
            <mxPoint x="530.0018181818182" y="149.71789473684208" as="sourcePoint" />
            <mxPoint x="569.985909090909" y="150.07315789473688" as="targetPoint" />
            <Array as="points">
              <mxPoint x="561.3199999999999" y="150.06" />
            </Array>
          </mxGeometry>
        </mxCell>
        <mxCell id="Z3-nPlaem73siMLmUKGo-49" value="" style="endArrow=classic;html=1;entryX=0.67;entryY=0.202;entryDx=0;entryDy=0;entryPerimeter=0;exitX=0.419;exitY=0.977;exitDx=0;exitDy=0;exitPerimeter=0;" edge="1" parent="1" source="Z3-nPlaem73siMLmUKGo-18" target="Z3-nPlaem73siMLmUKGo-29">
          <mxGeometry width="50" height="50" relative="1" as="geometry">
            <mxPoint x="492" y="149.82894736842104" as="sourcePoint" />
            <mxPoint x="466.15454545454554" y="149.82894736842104" as="targetPoint" />
            <Array as="points">
              <mxPoint x="420" y="250" />
            </Array>
          </mxGeometry>
        </mxCell>
        <mxCell id="Z3-nPlaem73siMLmUKGo-50" value="" style="endArrow=classic;html=1;exitX=1.048;exitY=0.315;exitDx=0;exitDy=0;exitPerimeter=0;" edge="1" parent="1" source="Z3-nPlaem73siMLmUKGo-25">
          <mxGeometry width="50" height="50" relative="1" as="geometry">
            <mxPoint x="492" y="149.82894736842104" as="sourcePoint" />
            <mxPoint x="230" y="143" as="targetPoint" />
          </mxGeometry>
        </mxCell>
        <mxCell id="Z3-nPlaem73siMLmUKGo-52" value="" style="endArrow=classic;startArrow=classic;html=1;entryX=0.505;entryY=-0.039;entryDx=0;entryDy=0;entryPerimeter=0;exitX=0.521;exitY=1.039;exitDx=0;exitDy=0;exitPerimeter=0;" edge="1" parent="1" source="Z3-nPlaem73siMLmUKGo-14" target="Z3-nPlaem73siMLmUKGo-4">
          <mxGeometry width="50" height="50" relative="1" as="geometry">
            <mxPoint x="40.00181818181818" y="219.99789473684203" as="sourcePoint" />
            <mxPoint x="139.4272727272728" y="220.7273684210526" as="targetPoint" />
            <Array as="points">
              <mxPoint x="20" y="190" />
            </Array>
          </mxGeometry>
        </mxCell>
        <mxCell id="Z3-nPlaem73siMLmUKGo-53" value="" style="endArrow=classic;startArrow=classic;html=1;entryX=-0.006;entryY=0.358;entryDx=0;entryDy=0;entryPerimeter=0;exitX=1.024;exitY=0.373;exitDx=0;exitDy=0;exitPerimeter=0;" edge="1" parent="1" source="Z3-nPlaem73siMLmUKGo-14" target="Z3-nPlaem73siMLmUKGo-25">
          <mxGeometry width="50" height="50" relative="1" as="geometry">
            <mxPoint x="70.86590909090899" y="182.01315789473676" as="sourcePoint" />
            <mxPoint x="70.30000000000007" y="273.43999999999994" as="targetPoint" />
            <Array as="points" />
          </mxGeometry>
        </mxCell>
        <mxCell id="Z3-nPlaem73siMLmUKGo-59" value="Feasibility &lt;br&gt;GUI" style="html=1;verticalLabelPosition=bottom;align=center;labelBackgroundColor=#ffffff;verticalAlign=top;strokeWidth=2;strokeColor=#0080F0;shadow=0;dashed=0;shape=mxgraph.ios7.icons.monitor;" vertex="1" parent="1">
          <mxGeometry x="482" y="243" width="58" height="40" as="geometry" />
        </mxCell>
        <mxCell id="Z3-nPlaem73siMLmUKGo-60" value="" style="group" vertex="1" connectable="0" parent="1">
          <mxGeometry x="570" y="243" width="60" height="50" as="geometry" />
        </mxCell>
        <mxCell id="Z3-nPlaem73siMLmUKGo-61" value="Query&lt;br&gt;Builder&lt;br&gt;" style="html=1;verticalLabelPosition=bottom;align=center;labelBackgroundColor=#ffffff;verticalAlign=top;strokeWidth=2;strokeColor=#0080F0;shadow=0;dashed=0;shape=mxgraph.ios7.icons.window;" vertex="1" parent="Z3-nPlaem73siMLmUKGo-60">
          <mxGeometry width="47.72727272727273" height="39.473684210526315" as="geometry" />
        </mxCell>
        <mxCell id="Z3-nPlaem73siMLmUKGo-62" value="" style="html=1;verticalLabelPosition=bottom;align=center;labelBackgroundColor=#ffffff;verticalAlign=top;strokeWidth=2;strokeColor=#0080F0;shadow=0;dashed=0;shape=mxgraph.ios7.icons.settings;" vertex="1" parent="Z3-nPlaem73siMLmUKGo-60">
          <mxGeometry x="32.72727272727273" y="23.68421052631579" width="27.27272727272727" height="26.315789473684212" as="geometry" />
        </mxCell>
        <mxCell id="Z3-nPlaem73siMLmUKGo-63" value="" style="endArrow=classic;startArrow=classic;html=1;entryX=-0.007;entryY=0.203;entryDx=0;entryDy=0;entryPerimeter=0;" edge="1" parent="1">
          <mxGeometry width="50" height="50" relative="1" as="geometry">
            <mxPoint x="540" y="263" as="sourcePoint" />
            <mxPoint x="569.9959090909091" y="263.0731578947369" as="targetPoint" />
            <Array as="points">
              <mxPoint x="561.33" y="263.06" />
            </Array>
          </mxGeometry>
        </mxCell>
        <mxCell id="Z3-nPlaem73siMLmUKGo-65" value="" style="endArrow=classic;startArrow=classic;html=1;entryX=-0.024;entryY=0.832;entryDx=0;entryDy=0;entryPerimeter=0;exitX=0.527;exitY=-0.072;exitDx=0;exitDy=0;exitPerimeter=0;" edge="1" parent="1" source="Z3-nPlaem73siMLmUKGo-61" target="Z3-nPlaem73siMLmUKGo-34">
          <mxGeometry width="50" height="50" relative="1" as="geometry">
            <mxPoint x="550" y="273" as="sourcePoint" />
            <mxPoint x="579.9959090909092" y="273.0731578947368" as="targetPoint" />
            <Array as="points" />
          </mxGeometry>
        </mxCell>
        <mxCell id="Z3-nPlaem73siMLmUKGo-70" value="ZARS" style="text;html=1;strokeColor=none;fillColor=none;align=center;verticalAlign=middle;whiteSpace=wrap;rounded=0;" vertex="1" parent="1">
          <mxGeometry x="14" y="92" width="40" height="20" as="geometry" />
        </mxCell>
        <mxCell id="Z3-nPlaem73siMLmUKGo-71" value="DMZ" style="text;html=1;strokeColor=none;fillColor=none;align=center;verticalAlign=middle;whiteSpace=wrap;rounded=0;" vertex="1" parent="1">
          <mxGeometry x="220" y="90" width="40" height="20" as="geometry" />
        </mxCell>
        <mxCell id="Z3-nPlaem73siMLmUKGo-72" value="DMZ" style="text;html=1;strokeColor=none;fillColor=none;align=center;verticalAlign=middle;whiteSpace=wrap;rounded=0;" vertex="1" parent="1">
          <mxGeometry x="385" y="90" width="40" height="20" as="geometry" />
        </mxCell>
        <mxCell id="Z3-nPlaem73siMLmUKGo-73" value="DIZ" style="text;html=1;strokeColor=none;fillColor=none;align=center;verticalAlign=middle;whiteSpace=wrap;rounded=0;" vertex="1" parent="1">
          <mxGeometry x="470" y="90" width="40" height="20" as="geometry" />
        </mxCell>
        <mxCell id="Z3-nPlaem73siMLmUKGo-76" value="AP2.3" style="rounded=1;align=center;fillColor=#F1F2F4;strokeColor=none;html=1;fontColor=#596780;fontSize=12" vertex="1" parent="1">
          <mxGeometry x="450" y="110" width="45" height="20" as="geometry" />
        </mxCell>
        <mxCell id="Z3-nPlaem73siMLmUKGo-78" value="AP2.2/2.3" style="rounded=1;align=center;fillColor=#F1F2F4;strokeColor=none;html=1;fontColor=#596780;fontSize=12" vertex="1" parent="1">
          <mxGeometry x="627" y="110" width="55" height="20" as="geometry" />
        </mxCell>
        <mxCell id="Z3-nPlaem73siMLmUKGo-81" value="AP2.2" style="rounded=1;align=center;fillColor=#F1F2F4;strokeColor=none;html=1;fontColor=#596780;fontSize=12" vertex="1" parent="1">
          <mxGeometry x="745" y="110" width="45" height="20" as="geometry" />
        </mxCell>
        <mxCell id="Z3-nPlaem73siMLmUKGo-82" value="AP2.3" style="rounded=1;align=center;fillColor=#F1F2F4;strokeColor=none;html=1;fontColor=#596780;fontSize=12" vertex="1" parent="1">
          <mxGeometry x="179" y="100" width="45" height="20" as="geometry" />
        </mxCell>
        <mxCell id="Z3-nPlaem73siMLmUKGo-83" value="AP1.7" style="rounded=1;align=center;fillColor=#F1F2F4;strokeColor=none;html=1;fontColor=#596780;fontSize=12" vertex="1" parent="1">
          <mxGeometry x="60" y="214" width="45" height="20" as="geometry" />
        </mxCell>
      </root>
    </mxGraphModel>
  </diagram>
</mxfile>
